<?xml version="1.0" encoding="utf-8"?>
<!-- Generator: Adobe Illustrator 25.4.1, SVG Export Plug-In . SVG Version: 6.00 Build 0)  -->
<svg version="1.1" id="Layer_1" xmlns="http://www.w3.org/2000/svg" xmlns:xlink="http://www.w3.org/1999/xlink" x="0px" y="0px"
	 viewBox="0 0 402.7 100.1" style="enable-background:new 0 0 402.7 100.1;" xml:space="preserve">
<style type="text/css">
	.st0{fill:#FFFFFF;}
	.st1{fill:#27B470;}
</style>
<g>
	<g>
		<path class="st0" d="M135.3,73.4c0-9.3,9.1-13.2,30-13.4h0.9v-2.1c0-7.7-4.7-12.1-12.7-12.1c-7.2,0-11.9,3.4-14.1,7.8
			c-0.1,0-2.4-0.3-2.4-2.4c0-0.9,0.9-2.6,2.4-4c2.6-2.6,7.3-5.2,14.4-5.2c10.4,0,16.6,6,16.6,15.8v25.8c0,0.1-0.7,0.4-1.5,0.4
			c-1.4,0-2.6-0.8-2.6-4.2v-4.2c-2.7,5.3-8.9,9-16.5,9C140.8,84.6,135.3,80.2,135.3,73.4z M166.2,67.3v-4.1h-1.1
			c-18.1,0.3-25.5,3.2-25.5,10.1c0,4.8,4,7.8,10.4,7.8C159.1,81.2,166.2,75.1,166.2,67.3z"/>
		<path class="st0" d="M194.9,82.6l-16-38.8c0-0.9,3.4-3,5.2,1.6l13.8,34.7l13.9-34.7c1.8-4.6,5-2.3,5-1.6l-15.9,38.7
			c-0.4,1.1-1,1.7-3.1,1.7C195.6,84.2,195.3,83.7,194.9,82.6z"/>
		<path class="st0" d="M223.2,73.4c0-9.3,9.1-13.2,30-13.4h0.9v-2.1c0-7.7-4.7-12.1-12.7-12.1c-7.2,0-11.9,3.4-14.1,7.8
			c-0.1,0-2.4-0.3-2.4-2.4c0-0.9,0.9-2.6,2.4-4c2.6-2.6,7.3-5.2,14.4-5.2c10.4,0,16.6,6,16.6,15.8v25.8c0,0.1-0.7,0.4-1.5,0.4
			c-1.4,0-2.6-0.8-2.6-4.2v-4.2c-2.7,5.3-8.9,9-16.5,9C228.7,84.6,223.2,80.2,223.2,73.4z M254.1,67.3v-4.1H253
			c-18.1,0.3-25.5,3.2-25.5,10.1c0,4.8,4,7.8,10.4,7.8C247,81.2,254.1,75.1,254.1,67.3z"/>
		<path class="st0" d="M271,73.4c0-9.3,9.1-13.2,30-13.4h0.9v-2.1c0-7.7-4.7-12.1-12.7-12.1c-7.2,0-11.9,3.4-14.1,7.8
			c-0.1,0-2.4-0.3-2.4-2.4c0-0.9,0.9-2.6,2.4-4c2.6-2.6,7.3-5.2,14.4-5.2c10.4,0,16.6,6,16.6,15.8v25.8c0,0.1-0.7,0.4-1.5,0.4
			c-1.4,0-2.6-0.8-2.6-4.2v-4.2c-2.7,5.3-8.9,9-16.5,9C276.5,84.6,271,80.2,271,73.4z M301.9,67.3v-4.1h-1.1
			c-18.1,0.3-25.5,3.2-25.5,10.1c0,4.8,4,7.8,10.4,7.8C294.8,81.2,301.9,75.1,301.9,67.3z"/>
		<path class="st0" d="M319.6,82V43c0-0.1,0.6-0.4,1.4-0.4c1.5,0,2.7,0.8,2.7,4.2v3.7c2.8-4.9,8-8.5,14.9-8.5
			c11.1,0,16.7,7.3,16.7,18.3V82c0,1.6-0.8,2-1.8,2H353c-1.1,0-1.8-0.4-1.8-2V60.5c0-9-4.5-14.6-12.6-14.6c-6.9,0-12.1,3.8-14.7,9.5
			V82c0,1.6-0.8,2-1.8,2h-0.5C320.4,84,319.6,83.6,319.6,82z"/>
		<path class="st0" d="M366.7,73.4c0-9.3,9.1-13.2,30-13.4h0.9v-2.1c0-7.7-4.7-12.1-12.7-12.1c-7.2,0-11.9,3.4-14.1,7.8
			c-0.1,0-2.4-0.3-2.4-2.4c0-0.9,0.9-2.6,2.4-4c2.6-2.6,7.3-5.2,14.4-5.2c10.4,0,16.6,6,16.6,15.8v25.8c0,0.1-0.7,0.4-1.5,0.4
			c-1.4,0-2.6-0.8-2.6-4.2v-4.2c-2.7,5.3-8.9,9-16.5,9C372.2,84.6,366.7,80.2,366.7,73.4z M397.6,67.3v-4.1h-1.1
			c-18.1,0.3-25.5,3.2-25.5,10.1c0,4.8,4,7.8,10.4,7.8C390.5,81.2,397.6,75.1,397.6,67.3z"/>
	</g>
</g>
<g>
	<path class="st1" d="M51.6,44c0.2,0,0.5,0,0.9,0c0.2,0,0.5,0,0.7,0c12.5,0,27-4.6,27-17.6c0-11.6-12.7-26.3-27-26.3
		c-0.2,0-0.5,0-0.9,0c-0.2,0-0.5,0-0.7,0c-14.3,0-27,14.7-27,26.3C24.6,39.4,39.1,44,51.6,44z"/>
	<path class="st1" d="M34.7,76.8c4.1-1.9,8.2-4.2,12.3-6.2c11.9-6,23.6-12.4,36.1-16.9c2.9-1,6.6-2.9,8.1-5.6c1.1-2.1,1.2-4.7,0.6-7
		c-0.4-1.6-1.3-3.2-2.8-3.6c-1.2-0.3-2.4,0.1-3.4,0.8C68,48.9,48.5,52.5,29.1,44.7c-6.5-2.6-14.4-0.9-19.8,3.6S0.8,59.7,0.3,66.8
		c-0.2,3.3,0.1,6.7,1.9,9.4c2.6,3.9,7.8,5.4,12.5,5.5C22,81.9,28.5,79.7,34.7,76.8z"/>
	<path class="st1" d="M100.3,65.2c-8-11.2-21-6-30.9-0.8C50.1,74.6,29.1,89.7,6,86.3c-1-0.1-1.3,1.3-0.9,2.2c1,2.7,3.7,4.2,6.3,5.4
		c16.8,7.5,36,6.7,54.3,4.8c5.9-0.6,11.8-1.3,17.5-3c5.7-1.7,11.1-4.6,15.1-9c1.8-1.9,3.2-4.2,4.1-6.7
		C104.2,75.2,103.4,69.5,100.3,65.2z"/>
</g>
</svg>
